# xmcd CD database file
#
# Track frame offsets:
#	150
#	1157
#	25998
#	28909
#	50534
#	65592
#	87221
#	88765
#	109235
#	111372
#	130422
#	148098
#	175975
#	191205
#	217586
#	218145
#
# Disc length: 3058 seconds
#
# Revision: 0
# Processed by: cddbd v1.5.1PL0 Copyright (c) Steve Scherf et al.
# Submitted via: CDex 1.51
#
DISCID=ea0bf010
DTITLE=Phonoroid - craving astonishment
DYEAR=2004
DGENRE=Country
TTITLE0=raven
TTITLE1=panic
TTITLE2=answering machine
TTITLE3=on sex
TTITLE4=little noises
TTITLE5=texas time
TTITLE6=i apologize
TTITLE7=craving astonishment
TTITLE8=don't say
TTITLE9=seeing double
TTITLE10=albuquerque
TTITLE11=backseat production
TTITLE12=froggy
TTITLE13=office installation
TTITLE14=waitress
TTITLE15=american waitress
EXTD=YEAR: 2004
EXTT0=
EXTT1=
EXTT2=
EXTT3=
EXTT4=
EXTT5=
EXTT6=
EXTT7=
EXTT8=
EXTT9=
EXTT10=
EXTT11=
EXTT12=
EXTT13=
EXTT14=
EXTT15=
PLAYORDER=
